<?xml version="1.0" encoding="utf-8"?>
<!-- Generator: Adobe Illustrator 27.3.1, SVG Export Plug-In . SVG Version: 6.00 Build 0)  -->
<svg version="1.1" id="svg10" xmlns="http://www.w3.org/2000/svg" xmlns:xlink="http://www.w3.org/1999/xlink" x="0px" y="0px"
	 viewBox="0 0 500 92.4" style="enable-background:new 0 0 500 92.4;" xml:space="preserve">
<style type="text/css">
	.st0{opacity:0.67;fill:url(#path22_00000065076406644315943810000017514395943349186718_);enable-background:new    ;}
	.st1{opacity:0.34;fill:url(#path24_00000027602815993809160010000000132870994959463813_);enable-background:new    ;}
</style>
<linearGradient id="path22_00000118393508575088833800000009780849976388351118_" gradientUnits="userSpaceOnUse" x1="259.1327" y1="699.221" x2="259.1327" y2="759.398" gradientTransform="matrix(1 0 0 1 0 -698)">
	<stop  offset="0" style="stop-color:#000000"/>
	<stop  offset="1" style="stop-color:#000000"/>
</linearGradient>
<path id="path22" style="opacity:0.67;fill:url(#path22_00000118393508575088833800000009780849976388351118_);enable-background:new    ;" d="
	M-4,39.7c12.3,9.5,39,16.5,86.2,15.7c47.2-0.9,125.2-14.5,194.3-24.3S456,7.1,497.6,1.3s58.6,9.5,22.4,11.1s-124.6,5.3-191.4,14.3
	S174.3,56.9,121.9,61.4s-81.3,1.8-106.1-5.3s-33.4-19.6-36.6-23.8S-16.3,30.2-4,39.7z"/>
<linearGradient id="path24_00000030465243960669807340000004104519259628666535_" gradientUnits="userSpaceOnUse" x1="-18.6" y1="55.25" x2="512" y2="55.25">
	<stop  offset="0" style="stop-color:#000000"/>
	<stop  offset="1" style="stop-color:#000000"/>
</linearGradient>
<path id="path24" style="opacity:0.34;fill:url(#path24_00000030465243960669807340000004104519259628666535_);enable-background:new    ;" d="
	M-17.6,96.4l529-2.5l0.6-79.8c-43,2-87.4,5.2-140.7,9.6s-157,24.1-212.6,34.7S58,65.3,27.9,60.8S-7.7,44.1-18.6,43.1L-17.6,96.4z"/>
</svg>
